Libre-Plantin-Bold.ufo
<glyph name="A" format="1">
  <advance width="600"/>
  <unicode hex="0041"/>
  <outline>
    <contour>
      <point x="344" y="620" type="line"/>
      <point x="239" y="334" type="line"/>
      <point x="450" y="334" type="line"/>
    </contour>
    <contour>
      <point x="223" y="288" type="line"/>
      <point x="200" y="224"/>
      <point x="183" y="177"/>
      <point x="172" y="143" type="curve" smooth="yes"/>
      <point x="155" y="92" type="line" smooth="yes"/>
      <point x="144" y="63"/>
      <point x="158" y="51"/>
      <point x="194" y="44" type="curve" smooth="yes"/>
      <point x="250" y="34" type="line"/>
      <point x="250" y="-5" type="line"/>
      <point x="101" y="0" type="line"/>
      <point x="-13" y="-5" type="line"/>
      <point x="-13" y="34" type="line"/>
      <point x="37" y="44" type="line" smooth="yes"/>
      <point x="68" y="51"/>
      <point x="80" y="62"/>
      <point x="92" y="91" type="curve" smooth="yes"/>
      <point x="148" y="232"/>
      <point x="206" y="383"/>
      <point x="253" y="504" type="curve" smooth="yes"/>
      <point x="280" y="575" name="inserted"/>
      <point x="306" y="641"/>
      <point x="331" y="707" type="curve"/>
      <point x="417" y="726" type="line"/>
      <point x="438" y="667" name="inserted"/>
      <point x="462" y="604"/>
      <point x="489" y="536" type="curve" smooth="yes"/>
      <point x="535" y="418"/>
      <point x="596" y="264"/>
      <point x="667" y="92" type="curve" smooth="yes"/>
      <point x="679" y="63"/>
      <point x="688" y="51"/>
      <point x="719" y="44" type="curve" smooth="yes"/>
      <point x="769" y="34" type="line"/>
      <point x="769" y="-5" type="line"/>
      <point x="607" y="0" type="line"/>
      <point x="444" y="-5" type="line"/>
      <point x="444" y="34" type="line"/>
      <point x="498" y="44" type="line" smooth="yes"/>
      <point x="534" y="51"/>
      <point x="550" y="63"/>
      <point x="539" y="92" type="curve" smooth="yes"/>
      <point x="528" y="120"/>
      <point x="510" y="168"/>
      <point x="494" y="211" type="curve" smooth="yes"/>
      <point x="485" y="236" name="inserted"/>
      <point x="476" y="261"/>
      <point x="465" y="288" type="curve"/>
    </contour>
  </outline>
</glyph>
<glyph name="C" format="1">
  <advance width="600"/>
  <unicode hex="0043"/>
  <outline>
    <contour>
      <point x="173" y="692"/>
      <point x="32" y="547"/>
      <point x="32" y="336" type="curve"/>
      <point x="32" y="106"/>
      <point x="195" y="-20"/>
      <point x="385" y="-20" type="curve"/>
      <point x="572" y="-20"/>
      <point x="738" y="105"/>
      <point x="738" y="336" type="curve"/>
      <point x="738" y="543"/>
      <point x="598" y="692"/>
      <point x="385" y="692" type="curve"/>
    </contour>
    <contour>
      <point x="534" y="648"/>
      <point x="623" y="522"/>
      <point x="623" y="336" type="curve"/>
      <point x="623" y="150"/>
      <point x="534" y="23"/>
      <point x="385" y="23" type="curve"/>
      <point x="255" y="23"/>
      <point x="146" y="150"/>
      <point x="146" y="336" type="curve"/>
      <point x="146" y="524"/>
      <point x="235" y="648"/>
      <point x="385" y="648" type="curve"/>
    </contour>
  </outline>
</glyph>
<glyph name="E" format="1">
  <advance width="600"/>
  <unicode hex="0045"/>
  <outline>
    <contour>
      <point x="407" y="624" type="line"/>
      <point x="464" y="624"/>
      <point x="477" y="610"/>
      <point x="487" y="581" type="curve" smooth="yes"/>
      <point x="519" y="490" type="line"/>
      <point x="550" y="490" type="line"/>
      <point x="568" y="672" type="line"/>
      <point x="32" y="672" type="line"/>
      <point x="32" y="648" type="line"/>
      <point x="94" y="632" type="line" smooth="yes"/>
      <point x="116" y="626"/>
      <point x="128" y="614"/>
      <point x="128" y="582" type="curve" smooth="yes"/>
      <point x="128" y="90" type="line" smooth="yes"/>
      <point x="128" y="58"/>
      <point x="116" y="46"/>
      <point x="94" y="40" type="curve" smooth="yes"/>
      <point x="32" y="24" type="line"/>
      <point x="32" y="0" type="line"/>
      <point x="578" y="0" type="line"/>
      <point x="608" y="202" type="line"/>
      <point x="574" y="202" type="line"/>
      <point x="514" y="89" type="line" smooth="yes"/>
      <point x="499" y="61"/>
      <point x="471" y="46"/>
      <point x="434" y="46" type="curve" smooth="yes"/>
      <point x="252" y="46" type="line" smooth="yes"/>
      <point x="229" y="46"/>
      <point x="218" y="64"/>
      <point x="218" y="96" type="curve" smooth="yes"/>
      <point x="218" y="320" type="line"/>
      <point x="357" y="320" type="line" smooth="yes"/>
      <point x="389" y="320"/>
      <point x="401" y="308"/>
      <point x="407" y="286" type="curve" smooth="yes"/>
      <point x="423" y="224" type="line"/>
      <point x="447" y="224" type="line"/>
      <point x="447" y="462" type="line"/>
      <point x="423" y="462" type="line"/>
      <point x="407" y="400" type="line" smooth="yes"/>
      <point x="401" y="378"/>
      <point x="389" y="366"/>
      <point x="357" y="366" type="curve" smooth="yes"/>
      <point x="218" y="366" type="line"/>
      <point x="218" y="576" type="line" smooth="yes"/>
      <point x="218" y="608"/>
      <point x="229" y="625"/>
      <point x="252" y="625" type="curve"/>
    </contour>
  </outline>
</glyph>
<glyph name="F" format="1">
  <advance width="600"/>
  <unicode hex="0046"/>
  <outline>
    <contour>
      <point x="32" y="648" type="line"/>
      <point x="94" y="632" type="line" smooth="yes"/>
      <point x="116" y="626"/>
      <point x="128" y="614"/>
      <point x="128" y="582" type="curve" smooth="yes"/>
      <point x="128" y="90" type="line" smooth="yes"/>
      <point x="128" y="58"/>
      <point x="116" y="46"/>
      <point x="94" y="40" type="curve" smooth="yes"/>
      <point x="32" y="24" type="line"/>
      <point x="32" y="0" type="line"/>
      <point x="314" y="0" type="line"/>
      <point x="314" y="24" type="line"/>
      <point x="252" y="40" type="line" smooth="yes"/>
      <point x="230" y="46"/>
      <point x="218" y="58"/>
      <point x="218" y="90" type="curve" smooth="yes"/>
      <point x="218" y="320" type="line"/>
      <point x="357" y="320" type="line" smooth="yes"/>
      <point x="389" y="320"/>
      <point x="401" y="308"/>
      <point x="407" y="286" type="curve" smooth="yes"/>
      <point x="423" y="224" type="line"/>
      <point x="447" y="224" type="line"/>
      <point x="447" y="462" type="line"/>
      <point x="423" y="462" type="line"/>
      <point x="407" y="400" type="line" smooth="yes"/>
      <point x="401" y="378"/>
      <point x="389" y="366"/>
      <point x="357" y="366" type="curve" smooth="yes"/>
      <point x="218" y="366" type="line"/>
      <point x="218" y="576" type="line" smooth="yes"/>
      <point x="218" y="608"/>
      <point x="229" y="625"/>
      <point x="252" y="625" type="curve" smooth="yes"/>
      <point x="407" y="624" type="line" smooth="yes"/>
      <point x="464" y="624"/>
      <point x="477" y="610"/>
      <point x="487" y="581" type="curve" smooth="yes"/>
      <point x="519" y="490" type="line"/>
      <point x="550" y="490" type="line"/>
      <point x="568" y="672" type="line"/>
      <point x="32" y="672" type="line"/>
    </contour>
  </outline>
</glyph>
<glyph name="I" format="1">
  <advance width="430"/>
  <unicode hex="0049"/>
  <outline>
    <contour>
      <point x="390" y="40" type="line"/>
      <point x="330" y="60" type="line"/>
      <point x="310" y="67"/>
      <point x="295" y="80"/>
      <point x="295" y="100" type="curve" smooth="yes"/>
      <point x="295" y="600" type="line" smooth="yes"/>
      <point x="295" y="620"/>
      <point x="310" y="633"/>
      <point x="330" y="640" type="curve"/>
      <point x="390" y="660" type="line"/>
      <point x="390" y="700" type="line"/>
      <point x="40" y="700" type="line"/>
      <point x="40" y="660" type="line"/>
      <point x="100" y="640" type="line"/>
      <point x="120" y="633"/>
      <point x="135" y="620"/>
      <point x="135" y="600" type="curve" smooth="yes"/>
      <point x="135" y="100" type="line" smooth="yes"/>
      <point x="135" y="80"/>
      <point x="120" y="67"/>
      <point x="100" y="60" type="curve"/>
      <point x="40" y="40" type="line"/>
      <point x="40" y="0" type="line"/>
      <point x="390" y="0" type="line"/>
    </contour>
  </outline>
</glyph>
<glyph name="L" format="1">
  <advance width="620"/>
  <unicode hex="004C"/>
  <outline>
    <contour>
      <point x="610" y="230" type="line"/>
      <point x="570" y="230" type="line"/>
      <point x="520" y="130" type="line" smooth="yes"/>
      <point x="490" y="70"/>
      <point x="460" y="50"/>
      <point x="400" y="50" type="curve" smooth="yes"/>
      <point x="315" y="50" type="line" smooth="yes"/>
      <point x="290" y="50"/>
      <point x="275" y="60"/>
      <point x="275" y="85" type="curve" smooth="yes"/>
      <point x="275" y="595" type="line"/>
      <point x="275" y="625"/>
      <point x="290" y="633"/>
      <point x="310" y="640" type="curve" smooth="yes"/>
      <point x="370" y="660" type="line"/>
      <point x="370" y="700" type="line"/>
      <point x="20" y="700" type="line"/>
      <point x="20" y="660" type="line"/>
      <point x="80" y="640" type="line" smooth="yes"/>
      <point x="100" y="633"/>
      <point x="115" y="625"/>
      <point x="115" y="595" type="curve"/>
      <point x="115" y="106" type="line" smooth="yes"/>
      <point x="115" y="76"/>
      <point x="100" y="67"/>
      <point x="80" y="60" type="curve" smooth="yes"/>
      <point x="20" y="40" type="line"/>
      <point x="20" y="0" type="line"/>
      <point x="590" y="0" type="line"/>
    </contour>
  </outline>
</glyph>
<glyph name="P" format="1">
  <advance width="680"/>
  <unicode hex="0050"/>
  <outline>
    <contour>
      <point x="420" y="700" type="curve"/>
      <point x="40" y="700" type="line"/>
      <point x="40" y="660" type="line"/>
      <point x="100" y="640" type="line" smooth="yes"/>
      <point x="120" y="633"/>
      <point x="135" y="624"/>
      <point x="135" y="594" type="curve" smooth="yes"/>
      <point x="135" y="105" type="line"/>
      <point x="135" y="75"/>
      <point x="120" y="67"/>
      <point x="100" y="60" type="curve" smooth="yes"/>
      <point x="40" y="40" type="line"/>
      <point x="40" y="0" type="line"/>
      <point x="390" y="0" type="line"/>
      <point x="390" y="40" type="line"/>
      <point x="330" y="60" type="line" smooth="yes"/>
      <point x="310" y="67"/>
      <point x="295" y="75"/>
      <point x="295" y="105" type="curve"/>
      <point x="295" y="615" type="line" smooth="yes"/>
      <point x="295" y="640"/>
      <point x="310" y="650"/>
      <point x="335" y="650" type="curve" smooth="yes"/>
      <point x="354" y="650" type="line" smooth="yes"/>
      <point x="442" y="650"/>
      <point x="490" y="598"/>
      <point x="490" y="500" type="curve" smooth="yes"/>
      <point x="490" y="410"/>
      <point x="464" y="340"/>
      <point x="360" y="340" type="curve" smooth="yes"/>
      <point x="354" y="340"/>
      <point x="330" y="340"/>
      <point x="330" y="320" type="curve" smooth="yes"/>
      <point x="330" y="295"/>
      <point x="349" y="292"/>
      <point x="360" y="290" type="curve" smooth="yes"/>
      <point x="512" y="258"/>
      <point x="660" y="350"/>
      <point x="660" y="500" type="curve" smooth="yes"/>
      <point x="660" y="633"/>
      <point x="570" y="700"/>
    </contour>
  </outline>
</glyph>
<glyph name="R" format="1">
  <advance width="681"/>
  <unicode hex="0052"/>
  <outline>
    <contour>
      <point x="206" y="346" type="line"/>
      <point x="206" y="582" type="line" smooth="yes"/>
      <point x="206" y="614"/>
      <point x="217" y="631"/>
      <point x="240" y="631" type="curve" smooth="yes"/>
      <point x="272" y="631" type="line" smooth="yes"/>
      <point x="343" y="631"/>
      <point x="453" y="621"/>
      <point x="453" y="502" type="curve" smooth="yes"/>
      <point x="453" y="392"/>
      <point x="406" y="346"/>
      <point x="325" y="346" type="curve" smooth="yes"/>
    </contour>
    <contour>
      <point x="653" y="24"/>
      <point x="619" y="48"/>
      <point x="568" y="122" type="curve" smooth="yes"/>
      <point x="426" y="329" type="line"/>
      <point x="495" y="351"/>
      <point x="557" y="406"/>
      <point x="557" y="502" type="curve" smooth="yes"/>
      <point x="557" y="642"/>
      <point x="420" y="672"/>
      <point x="304" y="672" type="curve" smooth="yes"/>
      <point x="20" y="672" type="line"/>
      <point x="20" y="648" type="line"/>
      <point x="82" y="632" type="line" smooth="yes"/>
      <point x="104" y="626"/>
      <point x="116" y="614"/>
      <point x="116" y="582" type="curve" smooth="yes"/>
      <point x="116" y="90" type="line" smooth="yes"/>
      <point x="116" y="58"/>
      <point x="104" y="46"/>
      <point x="82" y="40" type="curve" smooth="yes"/>
      <point x="20" y="24" type="line"/>
      <point x="20" y="0" type="line"/>
      <point x="302" y="0" type="line"/>
      <point x="302" y="24" type="line"/>
      <point x="240" y="40" type="line" smooth="yes"/>
      <point x="218" y="46"/>
      <point x="206" y="58"/>
      <point x="206" y="90" type="curve" smooth="yes"/>
      <point x="206" y="300" type="line"/>
      <point x="329" y="300" type="line"/>
      <point x="391" y="196" type="line"/>
      <point x="429" y="137"/>
      <point x="449" y="87"/>
      <point x="498" y="36" type="curve" smooth="yes"/>
      <point x="558" y="-27"/>
      <point x="657" y="-12"/>
      <point x="689" y="0" type="curve"/>
      <point x="689" y="24" type="line"/>
    </contour>
  </outline>
</glyph>
<glyph name="a" format="1">
  <advance width="535"/>
  <unicode hex="0061"/>
  <outline>
    <contour>
      <point x="230" y="-15"/>
      <point x="275" y="9"/>
      <point x="305" y="60" type="curve"/>
      <point x="315" y="10"/>
      <point x="360" y="-15"/>
      <point x="410" y="-15" type="curve" smooth="yes"/>
      <point x="460" y="-15"/>
      <point x="506" y="5"/>
      <point x="530" y="40" type="curve"/>
      <point x="520" y="75" type="line"/>
      <point x="510" y="67"/>
      <point x="497" y="63"/>
      <point x="485" y="63" type="curve" smooth="yes"/>
      <point x="463" y="63"/>
      <point x="450" y="75"/>
      <point x="450" y="96" type="curve" smooth="yes"/>
      <point x="450" y="347" type="line" smooth="yes"/>
      <point x="450" y="425"/>
      <point x="405" y="510"/>
      <point x="270" y="510" type="curve" smooth="yes"/>
      <point x="155" y="510"/>
      <point x="60" y="473"/>
      <point x="60" y="400" type="curve" smooth="yes"/>
      <point x="60" y="350"/>
      <point x="100" y="330"/>
      <point x="130" y="330" type="curve" smooth="yes"/>
      <point x="160" y="330"/>
      <point x="190" y="355"/>
      <point x="190" y="385" type="curve"/>
      <point x="190" y="410" type="line"/>
      <point x="190" y="439"/>
      <point x="205" y="465"/>
      <point x="235" y="465" type="curve" smooth="yes"/>
      <point x="284" y="465"/>
      <point x="300" y="444"/>
      <point x="300" y="355" type="curve" smooth="yes"/>
      <point x="300" y="270" type="line"/>
      <point x="152" y="270"/>
      <point x="30" y="219"/>
      <point x="30" y="120" type="curve" smooth="yes"/>
      <point x="30" y="40"/>
      <point x="92" y="-15"/>
      <point x="171" y="-15" type="curve" smooth="yes"/>
    </contour>
    <contour>
      <point x="300" y="120" type="line" smooth="yes"/>
      <point x="300" y="90"/>
      <point x="275" y="75"/>
      <point x="240" y="75" type="curve" smooth="yes"/>
      <point x="190" y="75"/>
      <point x="170" y="120"/>
      <point x="170" y="150" type="curve" smooth="yes"/>
      <point x="170" y="190"/>
      <point x="220" y="240"/>
      <point x="300" y="240" type="curve"/>
    </contour>
  </outline>
</glyph>
<glyph name="b" format="1">
  <advance width="592"/>
  <unicode hex="0062"/>
  <outline>
    <contour>
      <point x="317" y="-10" type="curve" smooth="yes"/>
      <point x="451" y="-10"/>
      <point x="562" y="93"/>
      <point x="562" y="241" type="curve" smooth="yes"/>
      <point x="562" y="389"/>
      <point x="512" y="510"/>
      <point x="347" y="510" type="curve" smooth="yes"/>
      <point x="278" y="510"/>
      <point x="217" y="468"/>
      <point x="205" y="433" type="curve"/>
      <point x="203" y="433" type="line"/>
      <point x="209" y="459"/>
      <point x="214" y="499"/>
      <point x="215" y="536" type="curve"/>
      <point x="215" y="700" type="line" smooth="yes"/>
      <point x="215" y="731"/>
      <point x="202" y="750"/>
      <point x="172" y="750" type="curve" smooth="yes"/>
      <point x="147" y="750"/>
      <point x="65" y="735"/>
      <point x="-5" y="715" type="curve"/>
      <point x="-5" y="690" type="line"/>
      <point x="28" y="676" type="line" smooth="yes"/>
      <point x="52" y="666"/>
      <point x="65" y="645"/>
      <point x="65" y="607" type="curve" smooth="yes"/>
      <point x="65" y="30" type="line"/>
      <point x="157" y="0"/>
      <point x="257" y="-10"/>
    </contour>
    <contour>
      <point x="207" y="240" type="curve" smooth="yes"/>
      <point x="207" y="380"/>
      <point x="236" y="428"/>
      <point x="307" y="428" type="curve" smooth="yes"/>
      <point x="358" y="428"/>
      <point x="413" y="370"/>
      <point x="413" y="241" type="curve" smooth="yes"/>
      <point x="413" y="111"/>
      <point x="357" y="40"/>
      <point x="277" y="40" type="curve" smooth="yes"/>
      <point x="237" y="40"/>
      <point x="207" y="110"/>
    </contour>
  </outline>
</glyph>
<glyph name="c" format="1">
  <advance width="470"/>
  <unicode hex="0063"/>
  <outline>
    <contour>
      <point x="417" y="461"/>
      <point x="350" y="491"/>
      <point x="255" y="491" type="curve" smooth="yes"/>
      <point x="140" y="491"/>
      <point x="36" y="390"/>
      <point x="36" y="241" type="curve" smooth="yes"/>
      <point x="36" y="93"/>
      <point x="131" y="-5"/>
      <point x="265" y="-5" type="curve" smooth="yes"/>
      <point x="346" y="-5"/>
      <point x="414" y="38"/>
      <point x="446" y="101" type="curve"/>
      <point x="426" y="124" type="line"/>
      <point x="396" y="89"/>
      <point x="353" y="53"/>
      <point x="303" y="53" type="curve" smooth="yes"/>
      <point x="228" y="53"/>
      <point x="130" y="121"/>
      <point x="130" y="241" type="curve" smooth="yes"/>
      <point x="130" y="371"/>
      <point x="183" y="450"/>
      <point x="314" y="450" type="curve"/>
      <point x="296" y="432"/>
      <point x="297" y="413"/>
      <point x="297" y="393" type="curve" smooth="yes"/>
      <point x="297" y="359"/>
      <point x="327" y="332"/>
      <point x="357" y="332" type="curve" smooth="yes"/>
      <point x="400" y="332"/>
      <point x="417" y="357"/>
      <point x="417" y="402" type="curve" smooth="yes"/>
    </contour>
  </outline>
</glyph>
<glyph name="d" format="1">
  <advance width="559"/>
  <unicode hex="0064"/>
  <outline>
    <contour>
      <point x="134" y="491"/>
      <point x="36" y="389"/>
      <point x="36" y="241" type="curve" smooth="yes"/>
      <point x="36" y="93"/>
      <point x="135" y="-9"/>
      <point x="269" y="-9" type="curve" smooth="yes"/>
      <point x="321" y="-9"/>
      <point x="363" y="6"/>
      <point x="395" y="33" type="curve"/>
      <point x="445" y="0" type="line"/>
      <point x="475" y="24" type="line"/>
      <point x="475" y="616" type="line" smooth="yes"/>
      <point x="475" y="642"/>
      <point x="486" y="650"/>
      <point x="509" y="658" type="curve" smooth="yes"/>
      <point x="551" y="672" type="line"/>
      <point x="551" y="696" type="line"/>
      <point x="437" y="736" type="line" smooth="yes"/>
      <point x="409" y="746"/>
      <point x="391" y="740"/>
      <point x="391" y="712" type="curve" smooth="yes"/>
      <point x="391" y="403" type="line"/>
      <point x="379" y="438"/>
      <point x="318" y="491"/>
      <point x="269" y="491" type="curve" smooth="yes"/>
    </contour>
    <contour>
      <point x="188" y="24"/>
      <point x="130" y="111"/>
      <point x="130" y="241" type="curve" smooth="yes"/>
      <point x="130" y="370"/>
      <point x="188" y="448"/>
      <point x="269" y="448" type="curve" smooth="yes"/>
      <point x="350" y="448"/>
      <point x="391" y="371"/>
      <point x="391" y="241" type="curve" smooth="yes"/>
      <point x="391" y="112"/>
      <point x="349" y="24"/>
      <point x="269" y="24" type="curve" smooth="yes"/>
    </contour>
  </outline>
</glyph>
<glyph name="e" format="1">
  <advance width="515.0"/>
  <unicode hex="0065"/>
  <outline>
    <contour>
      <point x="190" y="330" type="line"/>
      <point x="190" y="420"/>
      <point x="218" y="465"/>
      <point x="270" y="465" type="curve" smooth="yes"/>
      <point x="320" y="465"/>
      <point x="335" y="430"/>
      <point x="335" y="330" type="curve"/>
    </contour>
    <contour>
      <point x="480" y="98" type="curve"/>
      <point x="450" y="128" type="line"/>
      <point x="412" y="90"/>
      <point x="380" y="75"/>
      <point x="330" y="75" type="curve" smooth="yes"/>
      <point x="235" y="75"/>
      <point x="185" y="160"/>
      <point x="185" y="280" type="curve"/>
      <point x="490" y="280" type="line"/>
      <point x="490" y="310" type="line" smooth="yes"/>
      <point x="490" y="430"/>
      <point x="411" y="510"/>
      <point x="270" y="510" type="curve" smooth="yes"/>
      <point x="135" y="510"/>
      <point x="30" y="390"/>
      <point x="30" y="240" type="curve" smooth="yes"/>
      <point x="30" y="90"/>
      <point x="122" y="-15"/>
      <point x="260" y="-15" type="curve" smooth="yes"/>
      <point x="370" y="-15"/>
      <point x="440" y="30"/>
    </contour>
  </outline>
</glyph>
<glyph name="f" format="1">
  <advance width="325"/>
  <unicode hex="0066"/>
  <outline>
    <contour>
      <point x="309" y="463" type="line"/>
      <point x="189" y="463" type="line"/>
      <point x="189" y="512" type="line" smooth="yes"/>
      <point x="189" y="647"/>
      <point x="224" y="688"/>
      <point x="290" y="688" type="curve" smooth="yes"/>
      <point x="337" y="688"/>
      <point x="341" y="636"/>
      <point x="390" y="636" type="curve" smooth="yes"/>
      <point x="415" y="636"/>
      <point x="455" y="667"/>
      <point x="453" y="692" type="curve" smooth="yes"/>
      <point x="451" y="717"/>
      <point x="395" y="747"/>
      <point x="341" y="747" type="curve" smooth="yes"/>
      <point x="184" y="747"/>
      <point x="105" y="610"/>
      <point x="105" y="506" type="curve" smooth="yes"/>
      <point x="105" y="463" type="line"/>
      <point x="24" y="463" type="line"/>
      <point x="24" y="426" type="line"/>
      <point x="105" y="426" type="line"/>
      <point x="105" y="90" type="line" smooth="yes"/>
      <point x="105" y="58"/>
      <point x="93" y="48"/>
      <point x="71" y="40" type="curve" smooth="yes"/>
      <point x="29" y="24" type="line"/>
      <point x="29" y="0" type="line"/>
      <point x="265" y="0" type="line"/>
      <point x="265" y="24" type="line"/>
      <point x="223" y="40" type="line" smooth="yes"/>
      <point x="201" y="48"/>
      <point x="189" y="58"/>
      <point x="189" y="90" type="curve" smooth="yes"/>
      <point x="189" y="426" type="line"/>
      <point x="299" y="406" type="line"/>
    </contour>
  </outline>
</glyph>
<glyph name="g" format="1">
  <advance width="546"/>
  <unicode hex="0067"/>
  <outline>
    <contour>
      <point x="433" y="399"/>
      <point x="365" y="491"/>
      <point x="250" y="491" type="curve" smooth="yes"/>
      <point x="135" y="491"/>
      <point x="68" y="400"/>
      <point x="68" y="321" type="curve" smooth="yes"/>
      <point x="68" y="243"/>
      <point x="136" y="151"/>
      <point x="250" y="151" type="curve" smooth="yes"/>
      <point x="364" y="151"/>
      <point x="433" y="243"/>
      <point x="433" y="321" type="curve" smooth="yes"/>
    </contour>
    <contour>
      <point x="162" y="381"/>
      <point x="189" y="448"/>
      <point x="250" y="448" type="curve" smooth="yes"/>
      <point x="311" y="448"/>
      <point x="339" y="380"/>
      <point x="339" y="321" type="curve" smooth="yes"/>
      <point x="339" y="261"/>
      <point x="311" y="194"/>
      <point x="250" y="194" type="curve" smooth="yes"/>
      <point x="190" y="194"/>
      <point x="162" y="262"/>
      <point x="162" y="321" type="curve" smooth="yes"/>
    </contour>
    <contour>
      <point x="344" y="436" type="line"/>
      <point x="530" y="386" type="line"/>
      <point x="530" y="481" type="line"/>
      <point x="344" y="451" type="line"/>
    </contour>
    <contour>
      <point x="89" y="160"/>
      <point x="69" y="129"/>
      <point x="68" y="83" type="curve" smooth="yes"/>
      <point x="66" y="5"/>
      <point x="162" y="-15"/>
      <point x="270" y="-15" type="curve" smooth="yes"/>
      <point x="354" y="-15"/>
      <point x="412" y="-36"/>
      <point x="412" y="-87" type="curve" smooth="yes"/>
      <point x="412" y="-143"/>
      <point x="397" y="-206"/>
      <point x="266" y="-206" type="curve" smooth="yes"/>
      <point x="172" y="-206"/>
      <point x="128" y="-162"/>
      <point x="128" y="-106" type="curve" smooth="yes"/>
      <point x="128" y="-73"/>
      <point x="145" y="-40"/>
      <point x="183" y="0" type="curve"/>
      <point x="157" y="1" type="line"/>
      <point x="72" y="-40"/>
      <point x="40" y="-66"/>
      <point x="40" y="-122" type="curve" smooth="yes"/>
      <point x="40" y="-184"/>
      <point x="97" y="-245"/>
      <point x="250" y="-245" type="curve" smooth="yes"/>
      <point x="392" y="-245"/>
      <point x="506" y="-163"/>
      <point x="506" y="-75" type="curve" smooth="yes"/>
      <point x="506" y="4"/>
      <point x="474" y="72"/>
      <point x="302" y="75" type="curve" smooth="yes"/>
      <point x="203" y="77"/>
      <point x="145" y="74"/>
      <point x="145" y="130" type="curve" smooth="yes"/>
      <point x="145" y="154"/>
      <point x="156" y="157"/>
      <point x="174" y="181" type="curve"/>
      <point x="151" y="191" type="line"/>
    </contour>
  </outline>
</glyph>
<glyph name="h" format="1">
  <advance width="584"/>
  <unicode hex="0068"/>
  <outline>
    <contour>
      <point x="260" y="0" type="line"/>
      <point x="260" y="24" type="line"/>
      <point x="218" y="40" type="line" smooth="yes"/>
      <point x="196" y="48"/>
      <point x="184" y="58"/>
      <point x="184" y="90" type="curve" smooth="yes"/>
      <point x="184" y="312" type="line" smooth="yes"/>
      <point x="184" y="384"/>
      <point x="232" y="424"/>
      <point x="296" y="424" type="curve" smooth="yes"/>
      <point x="344" y="424"/>
      <point x="400" y="402"/>
      <point x="400" y="320" type="curve" smooth="yes"/>
      <point x="400" y="90" type="line" smooth="yes"/>
      <point x="400" y="58"/>
      <point x="388" y="48"/>
      <point x="366" y="40" type="curve" smooth="yes"/>
      <point x="324" y="24" type="line"/>
      <point x="324" y="0" type="line"/>
      <point x="560" y="0" type="line"/>
      <point x="560" y="24" type="line"/>
      <point x="518" y="40" type="line" smooth="yes"/>
      <point x="496" y="48"/>
      <point x="484" y="58"/>
      <point x="484" y="90" type="curve" smooth="yes"/>
      <point x="484" y="344" type="line" smooth="yes"/>
      <point x="484" y="404"/>
      <point x="438" y="488"/>
      <point x="328" y="488" type="curve" smooth="yes"/>
      <point x="260" y="488"/>
      <point x="216" y="448"/>
      <point x="176" y="400" type="curve"/>
      <point x="172" y="400" type="line"/>
      <point x="180" y="424"/>
      <point x="184" y="472"/>
      <point x="184" y="523" type="curve" smooth="yes"/>
      <point x="184" y="736" type="line" smooth="yes"/>
      <point x="184" y="764"/>
      <point x="164" y="770"/>
      <point x="136" y="760" type="curve" smooth="yes"/>
      <point x="24" y="720" type="line"/>
      <point x="24" y="696" type="line"/>
      <point x="66" y="682" type="line" smooth="yes"/>
      <point x="89" y="674"/>
      <point x="100" y="666"/>
      <point x="100" y="640" type="curve" smooth="yes"/>
      <point x="100" y="90" type="line" smooth="yes"/>
      <point x="100" y="58"/>
      <point x="88" y="48"/>
      <point x="66" y="40" type="curve" smooth="yes"/>
      <point x="24" y="24" type="line"/>
      <point x="24" y="0" type="line"/>
    </contour>
  </outline>
</glyph>
<glyph name="i" format="1">
  <advance width="340"/>
  <unicode hex="0069"/>
  <outline>
    <contour>
      <point x="170" y="585" type="curve" smooth="yes"/>
      <point x="224" y="585"/>
      <point x="270" y="629"/>
      <point x="270" y="680" type="curve" smooth="yes"/>
      <point x="270" y="735"/>
      <point x="224" y="780"/>
      <point x="170" y="780" type="curve" smooth="yes"/>
      <point x="117" y="780"/>
      <point x="70" y="735"/>
      <point x="70" y="680" type="curve" smooth="yes"/>
      <point x="70" y="629"/>
      <point x="117" y="585"/>
    </contour>
    <contour>
      <point x="100" y="90" type="line" smooth="yes"/>
      <point x="100" y="70"/>
      <point x="90" y="58"/>
      <point x="70" y="50" type="curve" smooth="yes"/>
      <point x="20" y="30" type="line"/>
      <point x="20" y="0" type="line"/>
      <point x="320" y="0" type="line"/>
      <point x="320" y="30" type="line"/>
      <point x="280" y="50" type="line" smooth="yes"/>
      <point x="260" y="60"/>
      <point x="250" y="70"/>
      <point x="250" y="90" type="curve" smooth="yes"/>
      <point x="250" y="470" type="line" smooth="yes"/>
      <point x="250" y="505"/>
      <point x="235" y="520"/>
      <point x="210" y="520" type="curve" smooth="yes"/>
      <point x="190" y="520"/>
      <point x="160" y="505"/>
      <point x="140" y="495" type="curve" smooth="yes"/>
      <point x="30" y="440" type="line"/>
      <point x="30" y="410" type="line"/>
      <point x="70" y="400" type="line" smooth="yes"/>
      <point x="90" y="395"/>
      <point x="100" y="380"/>
      <point x="100" y="340" type="curve" smooth="yes"/>
    </contour>
  </outline>
</glyph>
<glyph name="j" format="1">
  <advance width="291"/>
  <unicode hex="006A"/>
  <outline>
    <contour>
      <point x="176" y="580" type="curve" smooth="yes"/>
      <point x="231" y="580"/>
      <point x="276" y="625"/>
      <point x="276" y="680" type="curve" smooth="yes"/>
      <point x="276" y="740"/>
      <point x="231" y="780"/>
      <point x="176" y="780" type="curve" smooth="yes"/>
      <point x="121" y="780"/>
      <point x="76" y="735"/>
      <point x="76" y="680" type="curve" smooth="yes"/>
      <point x="76" y="625"/>
      <point x="121" y="580"/>
    </contour>
    <contour>
      <point x="116" y="90" type="line" smooth="yes"/>
      <point x="116" y="0"/>
      <point x="80" y="-70"/>
      <point x="20" y="-150" type="curve"/>
      <point x="70" y="-200" type="line"/>
      <point x="180" y="-90"/>
      <point x="266" y="-15"/>
      <point x="266" y="90" type="curve" smooth="yes"/>
      <point x="266" y="470" type="line" smooth="yes"/>
      <point x="266" y="506"/>
      <point x="243" y="520"/>
      <point x="216" y="520" type="curve" smooth="yes"/>
      <point x="204" y="520"/>
      <point x="186" y="510"/>
      <point x="166" y="500" type="curve" smooth="yes"/>
      <point x="46" y="440" type="line"/>
      <point x="46" y="410" type="line"/>
      <point x="86" y="390" type="line" smooth="yes"/>
      <point x="106" y="380"/>
      <point x="116" y="370"/>
      <point x="116" y="340" type="curve" smooth="yes"/>
    </contour>
  </outline>
</glyph>
<glyph name="k" format="1">
  <advance width="569"/>
  <unicode hex="006B"/>
  <outline>
    <contour>
      <point x="240" y="280" type="line"/>
      <point x="240" y="730" type="line" smooth="yes"/>
      <point x="240" y="766"/>
      <point x="217" y="780"/>
      <point x="190" y="780" type="curve" smooth="yes"/>
      <point x="178" y="780"/>
      <point x="160" y="770"/>
      <point x="140" y="760" type="curve" smooth="yes"/>
      <point x="20" y="700" type="line"/>
      <point x="20" y="670" type="line"/>
      <point x="60" y="650" type="line" smooth="yes"/>
      <point x="80" y="640"/>
      <point x="90" y="630"/>
      <point x="90" y="600" type="curve" smooth="yes"/>
      <point x="90" y="90" type="line" smooth="yes"/>
      <point x="90" y="70"/>
      <point x="80" y="60"/>
      <point x="60" y="50" type="curve" smooth="yes"/>
      <point x="20" y="30" type="line"/>
      <point x="20" y="0" type="line"/>
      <point x="310" y="0" type="line"/>
      <point x="310" y="30" type="line"/>
      <point x="270" y="50" type="line" smooth="yes"/>
      <point x="250" y="60"/>
      <point x="240" y="70"/>
      <point x="240" y="90" type="curve" smooth="yes"/>
      <point x="240" y="217" type="line"/>
      <point x="365" y="73" type="line"/>
      <point x="495" y="-22" type="line"/>
      <point x="562" y="-5" type="line"/>
      <point x="569" y="80" type="line"/>
      <point x="532" y="93" type="line"/>
      <point x="343" y="306" type="line"/>
      <point x="460" y="416" type="line"/>
      <point x="545" y="449" type="line"/>
      <point x="546" y="498" type="line"/>
      <point x="303" y="501" type="line"/>
      <point x="302" y="455" type="line"/>
      <point x="344" y="391" type="line"/>
      <point x="247" y="292" type="line"/>
      <point x="252" y="287" type="line"/>
    </contour>
  </outline>
</glyph>
<glyph name="l" format="1">
  <advance width="325"/>
  <unicode hex="006C"/>
  <outline>
    <contour>
      <point x="90" y="90" type="line" smooth="yes"/>
      <point x="90" y="70"/>
      <point x="80" y="60"/>
      <point x="60" y="50" type="curve" smooth="yes"/>
      <point x="20" y="30" type="line"/>
      <point x="20" y="0" type="line"/>
      <point x="310" y="0" type="line"/>
      <point x="310" y="30" type="line"/>
      <point x="270" y="50" type="line" smooth="yes"/>
      <point x="250" y="60"/>
      <point x="240" y="70"/>
      <point x="240" y="90" type="curve" smooth="yes"/>
      <point x="240" y="710" type="line" smooth="yes"/>
      <point x="240" y="746"/>
      <point x="217" y="760"/>
      <point x="190" y="760" type="curve" smooth="yes"/>
      <point x="178" y="760"/>
      <point x="160" y="755"/>
      <point x="140" y="750" type="curve" smooth="yes"/>
      <point x="20" y="720" type="line"/>
      <point x="20" y="690" type="line"/>
      <point x="60" y="670" type="line" smooth="yes"/>
      <point x="80" y="660"/>
      <point x="90" y="650"/>
      <point x="90" y="620" type="curve" smooth="yes"/>
    </contour>
  </outline>
</glyph>
<glyph name="m" format="1">
  <advance width="900"/>
  <unicode hex="006D"/>
  <outline>
    <contour>
      <point x="268" y="24" type="line"/>
      <point x="226" y="40" type="line" smooth="yes"/>
      <point x="204" y="48"/>
      <point x="192" y="58"/>
      <point x="192" y="90" type="curve"/>
      <point x="192" y="312" type="line" smooth="yes"/>
      <point x="192" y="384"/>
      <point x="237" y="424"/>
      <point x="302" y="424" type="curve" smooth="yes"/>
      <point x="344" y="424"/>
      <point x="408" y="402"/>
      <point x="408" y="320" type="curve" smooth="yes"/>
      <point x="408" y="90" type="line"/>
      <point x="408" y="58"/>
      <point x="396" y="48"/>
      <point x="374" y="40" type="curve" smooth="yes"/>
      <point x="332" y="24" type="line"/>
      <point x="332" y="0" type="line"/>
      <point x="568" y="0" type="line"/>
      <point x="568" y="24" type="line"/>
      <point x="526" y="40" type="line" smooth="yes"/>
      <point x="504" y="48"/>
      <point x="492" y="58"/>
      <point x="492" y="90" type="curve"/>
      <point x="492" y="344" type="line" smooth="yes"/>
      <point x="492" y="404"/>
      <point x="443" y="487"/>
      <point x="333" y="487" type="curve" smooth="yes"/>
      <point x="265" y="487"/>
      <point x="219" y="438"/>
      <point x="184" y="408" type="curve"/>
      <point x="176" y="408" type="line"/>
      <point x="184" y="424"/>
      <point x="192" y="448"/>
      <point x="192" y="472" type="curve" smooth="yes"/>
      <point x="192" y="500"/>
      <point x="174" y="506"/>
      <point x="146" y="496" type="curve" smooth="yes"/>
      <point x="32" y="456" type="line"/>
      <point x="32" y="432" type="line"/>
      <point x="74" y="418" type="line" smooth="yes"/>
      <point x="97" y="410"/>
      <point x="108" y="402"/>
      <point x="108" y="376" type="curve" smooth="yes"/>
      <point x="108" y="90" type="line"/>
      <point x="108" y="58"/>
      <point x="96" y="48"/>
      <point x="74" y="40" type="curve" smooth="yes"/>
      <point x="32" y="24" type="line"/>
      <point x="32" y="0" type="line"/>
      <point x="268" y="0" type="line"/>
    </contour>
    <contour>
      <point x="492" y="312" type="line"/>
      <point x="492" y="384"/>
      <point x="537" y="424"/>
      <point x="602" y="424" type="curve" smooth="yes"/>
      <point x="644" y="424"/>
      <point x="708" y="402"/>
      <point x="708" y="320" type="curve" smooth="yes"/>
      <point x="708" y="90" type="line"/>
      <point x="708" y="58"/>
      <point x="696" y="48"/>
      <point x="674" y="40" type="curve" smooth="yes"/>
      <point x="632" y="24" type="line"/>
      <point x="632" y="0" type="line"/>
      <point x="868" y="0" type="line"/>
      <point x="868" y="24" type="line"/>
      <point x="826" y="40" type="line" smooth="yes"/>
      <point x="804" y="48"/>
      <point x="792" y="58"/>
      <point x="792" y="90" type="curve"/>
      <point x="792" y="344" type="line" smooth="yes"/>
      <point x="792" y="404"/>
      <point x="743" y="487"/>
      <point x="633" y="487" type="curve" smooth="yes"/>
      <point x="565" y="487"/>
      <point x="499" y="428"/>
      <point x="464" y="398" type="curve"/>
    </contour>
  </outline>
</glyph>
<glyph name="n" format="1">
  <advance width="640"/>
  <unicode hex="006E"/>
  <outline>
    <contour>
      <point x="305" y="30" type="line"/>
      <point x="265" y="50" type="line" smooth="yes"/>
      <point x="250" y="58"/>
      <point x="245" y="70"/>
      <point x="245" y="90" type="curve" smooth="yes"/>
      <point x="245" y="370" type="line"/>
      <point x="270" y="400"/>
      <point x="300" y="425"/>
      <point x="340" y="425" type="curve" smooth="yes"/>
      <point x="390" y="425"/>
      <point x="415" y="395"/>
      <point x="415" y="345" type="curve" smooth="yes"/>
      <point x="415" y="90" type="line" smooth="yes"/>
      <point x="415" y="70"/>
      <point x="410" y="58"/>
      <point x="395" y="50" type="curve" smooth="yes"/>
      <point x="355" y="30" type="line"/>
      <point x="355" y="0" type="line"/>
      <point x="635" y="0" type="line"/>
      <point x="635" y="30" type="line"/>
      <point x="595" y="50" type="line" smooth="yes"/>
      <point x="575" y="60"/>
      <point x="565" y="70"/>
      <point x="565" y="90" type="curve"/>
      <point x="565" y="350" type="line" smooth="yes"/>
      <point x="565" y="450"/>
      <point x="510" y="510"/>
      <point x="420" y="510" type="curve" smooth="yes"/>
      <point x="350" y="510"/>
      <point x="285" y="480"/>
      <point x="245" y="440" type="curve"/>
      <point x="235" y="440" type="line"/>
      <point x="235" y="470" type="line" smooth="yes"/>
      <point x="235" y="506"/>
      <point x="212" y="520"/>
      <point x="185" y="520" type="curve" smooth="yes"/>
      <point x="173" y="520"/>
      <point x="155" y="510"/>
      <point x="135" y="500" type="curve" smooth="yes"/>
      <point x="25" y="445" type="line"/>
      <point x="25" y="415" type="line"/>
      <point x="65" y="395" type="line" smooth="yes"/>
      <point x="85" y="385"/>
      <point x="95" y="375"/>
      <point x="95" y="345" type="curve" smooth="yes"/>
      <point x="95" y="90" type="line" smooth="yes"/>
      <point x="95" y="70"/>
      <point x="85" y="60"/>
      <point x="65" y="50" type="curve" smooth="yes"/>
      <point x="25" y="30" type="line"/>
      <point x="25" y="0" type="line"/>
      <point x="305" y="0" type="line"/>
    </contour>
  </outline>
</glyph>
<glyph name="o" format="1">
  <advance width="512"/>
  <unicode hex="006F"/>
  <outline>
    <contour>
      <point x="256" y="32" type="curve"/>
      <point x="167" y="32"/>
      <point x="128" y="122"/>
      <point x="128" y="233" type="curve"/>
      <point x="128" y="344"/>
      <point x="167" y="434"/>
      <point x="256" y="434" type="curve"/>
      <point x="345" y="434"/>
      <point x="384" y="344"/>
      <point x="384" y="233" type="curve"/>
      <point x="384" y="122"/>
      <point x="345" y="32"/>
    </contour>
    <contour>
      <point x="256" y="-10" type="curve"/>
      <point x="391" y="-10"/>
      <point x="488" y="101"/>
      <point x="488" y="233" type="curve"/>
      <point x="488" y="365"/>
      <point x="391" y="476"/>
      <point x="256" y="476" type="curve"/>
      <point x="121" y="476"/>
      <point x="24" y="365"/>
      <point x="24" y="233" type="curve"/>
      <point x="24" y="101"/>
      <point x="121" y="-10"/>
    </contour>
  </outline>
</glyph>
<glyph name="p" format="1">
  <advance width="600"/>
  <unicode hex="0070"/>
  <outline>
    <contour>
      <point x="441" y="-10"/>
      <point x="539" y="92"/>
      <point x="539" y="240" type="curve" smooth="yes"/>
      <point x="539" y="388"/>
      <point x="440" y="490"/>
      <point x="306" y="490" type="curve" smooth="yes"/>
      <point x="254" y="490"/>
      <point x="212" y="475"/>
      <point x="180" y="448" type="curve"/>
      <point x="130" y="481" type="line"/>
      <point x="100" y="457" type="line"/>
      <point x="100" y="-135" type="line" smooth="yes"/>
      <point x="100" y="-161"/>
      <point x="89" y="-169"/>
      <point x="66" y="-177" type="curve" smooth="yes"/>
      <point x="24" y="-191" type="line"/>
      <point x="24" y="-215" type="line"/>
      <point x="138" y="-255" type="line" smooth="yes"/>
      <point x="166" y="-265"/>
      <point x="184" y="-259"/>
      <point x="184" y="-231" type="curve" smooth="yes"/>
      <point x="184" y="78" type="line"/>
      <point x="196" y="43"/>
      <point x="257" y="-10"/>
      <point x="306" y="-10" type="curve" smooth="yes"/>
    </contour>
    <contour>
      <point x="387" y="457"/>
      <point x="445" y="370"/>
      <point x="445" y="240" type="curve" smooth="yes"/>
      <point x="445" y="111"/>
      <point x="387" y="33"/>
      <point x="306" y="33" type="curve" smooth="yes"/>
      <point x="225" y="33"/>
      <point x="184" y="110"/>
      <point x="184" y="240" type="curve" smooth="yes"/>
      <point x="184" y="369"/>
      <point x="226" y="457"/>
      <point x="306" y="457" type="curve" smooth="yes"/>
    </contour>
  </outline>
</glyph>
<glyph name="r" format="1">
  <advance width="440.0"/>
  <unicode hex="0072"/>
  <outline>
    <contour>
      <point x="320" y="30" type="line"/>
      <point x="270" y="40" type="line" smooth="yes"/>
      <point x="245" y="45"/>
      <point x="230" y="70"/>
      <point x="230" y="110" type="curve"/>
      <point x="230" y="340" type="line" smooth="yes"/>
      <point x="230" y="380"/>
      <point x="270" y="400"/>
      <point x="300" y="400" type="curve"/>
      <point x="310" y="360"/>
      <point x="330" y="330"/>
      <point x="380" y="330" type="curve" smooth="yes"/>
      <point x="421" y="330"/>
      <point x="460" y="370"/>
      <point x="460" y="420" type="curve" smooth="yes"/>
      <point x="460" y="470"/>
      <point x="420" y="510"/>
      <point x="360" y="510" type="curve" smooth="yes"/>
      <point x="300" y="510"/>
      <point x="270" y="470"/>
      <point x="230" y="420" type="curve"/>
      <point x="220" y="420" type="line"/>
      <point x="220" y="470" type="line" smooth="yes"/>
      <point x="220" y="505"/>
      <point x="205" y="520"/>
      <point x="170" y="520" type="curve" smooth="yes"/>
      <point x="150" y="520"/>
      <point x="130" y="510"/>
      <point x="110" y="500" type="curve" smooth="yes"/>
      <point x="10" y="450" type="line"/>
      <point x="10" y="420" type="line"/>
      <point x="50" y="410" type="line" smooth="yes"/>
      <point x="70" y="405"/>
      <point x="80" y="380"/>
      <point x="80" y="340" type="curve" smooth="yes"/>
      <point x="80" y="110" type="line"/>
      <point x="80" y="70"/>
      <point x="75" y="48"/>
      <point x="50" y="40" type="curve" smooth="yes"/>
      <point x="20" y="30" type="line"/>
      <point x="20" y="0" type="line"/>
      <point x="320" y="0" type="line"/>
    </contour>
  </outline>
</glyph>
<glyph name="t" format="1">
  <advance width="406"/>
  <unicode hex="0074"/>
  <outline>
    <contour>
      <point x="240" y="190" type="line"/>
      <point x="240" y="137"/>
      <point x="240" y="60"/>
      <point x="310" y="60" type="curve" smooth="yes"/>
      <point x="330" y="60"/>
      <point x="360" y="70"/>
      <point x="390" y="80" type="curve"/>
      <point x="390" y="30" type="line"/>
      <point x="340" y="-10"/>
      <point x="290" y="-15"/>
      <point x="240" y="-15" type="curve" smooth="yes"/>
      <point x="147" y="-15"/>
      <point x="90" y="34"/>
      <point x="90" y="120" type="curve" smooth="yes"/>
      <point x="90" y="410" type="line"/>
      <point x="0" y="410" type="line"/>
      <point x="0" y="460" type="line"/>
      <point x="90" y="490"/>
      <point x="150" y="520"/>
      <point x="180" y="590" type="curve"/>
      <point x="240" y="590" type="line"/>
      <point x="240" y="460" type="line"/>
      <point x="370" y="460" type="line"/>
      <point x="370" y="410" type="line"/>
      <point x="240" y="410" type="line"/>
    </contour>
  </outline>
</glyph>
<glyph name="w" format="1">
  <advance width="900"/>
  <unicode hex="0077"/>
  <outline>
    <contour>
      <point x="868" y="477" type="line"/>
      <point x="868" y="501" type="line"/>
      <point x="632" y="501" type="line"/>
      <point x="632" y="477" type="line"/>
      <point x="674" y="461" type="line" smooth="yes"/>
      <point x="696" y="453"/>
      <point x="708" y="443"/>
      <point x="708" y="411" type="curve" smooth="yes"/>
      <point x="708" y="189" type="line" smooth="yes"/>
      <point x="708" y="117"/>
      <point x="663" y="77"/>
      <point x="598" y="77" type="curve" smooth="yes"/>
      <point x="556" y="77"/>
      <point x="492" y="99"/>
      <point x="492" y="181" type="curve" smooth="yes"/>
      <point x="492" y="411" type="line" smooth="yes"/>
      <point x="492" y="443"/>
      <point x="504" y="453"/>
      <point x="526" y="461" type="curve" smooth="yes"/>
      <point x="568" y="477" type="line"/>
      <point x="568" y="501" type="line"/>
      <point x="332" y="501" type="line"/>
      <point x="332" y="477" type="line"/>
      <point x="374" y="461" type="line" smooth="yes"/>
      <point x="396" y="453"/>
      <point x="408" y="443"/>
      <point x="408" y="411" type="curve" smooth="yes"/>
      <point x="408" y="189" type="line" smooth="yes"/>
      <point x="408" y="117"/>
      <point x="363" y="77"/>
      <point x="298" y="77" type="curve" smooth="yes"/>
      <point x="256" y="77"/>
      <point x="192" y="99"/>
      <point x="192" y="181" type="curve" smooth="yes"/>
      <point x="192" y="411" type="line" smooth="yes"/>
      <point x="192" y="443"/>
      <point x="204" y="453"/>
      <point x="226" y="461" type="curve" smooth="yes"/>
      <point x="268" y="477" type="line"/>
      <point x="268" y="501" type="line"/>
      <point x="32" y="501" type="line"/>
      <point x="32" y="477" type="line"/>
      <point x="74" y="461" type="line" smooth="yes"/>
      <point x="96" y="453"/>
      <point x="108" y="443"/>
      <point x="108" y="411" type="curve" smooth="yes"/>
      <point x="108" y="157" type="line" smooth="yes"/>
      <point x="108" y="97"/>
      <point x="157" y="14"/>
      <point x="267" y="14" type="curve" smooth="yes"/>
      <point x="335" y="14"/>
      <point x="381" y="63"/>
      <point x="416" y="93" type="curve"/>
      <point x="424" y="93" type="line"/>
      <point x="416" y="77"/>
      <point x="408" y="53"/>
      <point x="408" y="29" type="curve" smooth="yes"/>
      <point x="408" y="1"/>
      <point x="426" y="-5"/>
      <point x="454" y="5" type="curve" smooth="yes"/>
      <point x="507" y="24" type="line"/>
      <point x="524" y="17"/>
      <point x="544" y="14"/>
      <point x="567" y="14" type="curve" smooth="yes"/>
      <point x="635" y="14"/>
      <point x="681" y="63"/>
      <point x="716" y="93" type="curve"/>
      <point x="724" y="93" type="line"/>
      <point x="716" y="77"/>
      <point x="708" y="53"/>
      <point x="708" y="29" type="curve" smooth="yes"/>
      <point x="708" y="1"/>
      <point x="726" y="-5"/>
      <point x="754" y="5" type="curve" smooth="yes"/>
      <point x="868" y="45" type="line"/>
      <point x="868" y="69" type="line"/>
      <point x="826" y="83" type="line" smooth="yes"/>
      <point x="803" y="91"/>
      <point x="792" y="99"/>
      <point x="792" y="125" type="curve" smooth="yes"/>
      <point x="792" y="411" type="line" smooth="yes"/>
      <point x="792" y="443"/>
      <point x="804" y="453"/>
      <point x="826" y="461" type="curve" smooth="yes"/>
    </contour>
  </outline>
</glyph>
<glyph name="x" format="1">
  <advance width="600"/>
  <unicode hex="0078"/>
  <outline>
    <contour>
      <point x="300" y="489" type="line"/>
      <point x="51" y="485" type="line"/>
      <point x="47" y="456" type="line"/>
      <point x="75" y="443"/>
      <point x="112" y="457"/>
      <point x="130" y="418" type="curve"/>
      <point x="359" y="66" type="line"/>
      <point x="355" y="54"/>
      <point x="360" y="35"/>
      <point x="346" y="29" type="curve"/>
      <point x="313" y="23" type="line"/>
      <point x="313" y="-6" type="line"/>
      <point x="567" y="-6" type="line"/>
      <point x="561" y="24" type="line"/>
      <point x="534" y="40"/>
      <point x="531" y="11"/>
      <point x="480" y="73" type="curve"/>
      <point x="241" y="413" type="line"/>
      <point x="233" y="423"/>
      <point x="233" y="449"/>
      <point x="261" y="452" type="curve" smooth="yes"/>
      <point x="300" y="463" type="line"/>
    </contour>
    <contour>
      <point x="354" y="461" type="line"/>
      <point x="405" y="461"/>
      <point x="436" y="457"/>
      <point x="406" y="415" type="curve"/>
      <point x="307" y="281" type="line"/>
      <point x="313" y="249" type="line"/>
      <point x="457" y="408" type="line"/>
      <point x="478" y="422"/>
      <point x="489" y="444"/>
      <point x="520" y="450" type="curve"/>
      <point x="553" y="456" type="line"/>
      <point x="547" y="488" type="line"/>
      <point x="356" y="485" type="line"/>
    </contour>
    <contour>
      <point x="101" y="45" type="line"/>
      <point x="55" y="9"/>
      <point x="57" y="36"/>
      <point x="35" y="31" type="curve"/>
      <point x="30" y="5" type="line"/>
      <point x="227" y="1" type="line"/>
      <point x="227" y="23" type="line"/>
      <point x="199" y="30" type="line"/>
      <point x="186" y="30"/>
      <point x="187" y="57"/>
      <point x="181" y="71" type="curve"/>
      <point x="280" y="209" type="line"/>
      <point x="267" y="232" type="line"/>
    </contour>
  </outline>
</glyph>
<glyph name="y" format="1">
  <advance width="600"/>
  <unicode hex="0079"/>
  <outline>
    <contour>
      <point x="296" y="0" type="line"/>
      <point x="326" y="66" type="line"/>
      <point x="192" y="390" type="line" smooth="yes"/>
      <point x="181" y="416"/>
      <point x="204" y="432"/>
      <point x="226" y="440" type="curve" smooth="yes"/>
      <point x="268" y="456" type="line"/>
      <point x="268" y="480" type="line"/>
      <point x="32" y="480" type="line"/>
      <point x="32" y="456" type="line"/>
      <point x="74" y="440" type="line" smooth="yes"/>
      <point x="96" y="432"/>
      <point x="100" y="414"/>
      <point x="108" y="390" type="curve" smooth="yes"/>
      <point x="243" y="0" type="line"/>
    </contour>
    <contour>
      <point x="117" y="-269" type="line"/>
      <point x="211" y="-269" type="line"/>
      <point x="492" y="390" type="line"/>
      <point x="492" y="422"/>
      <point x="504" y="432"/>
      <point x="526" y="440" type="curve" smooth="yes"/>
      <point x="568" y="456" type="line"/>
      <point x="568" y="480" type="line"/>
      <point x="362" y="480" type="line"/>
      <point x="362" y="456" type="line"/>
      <point x="404" y="440" type="line" smooth="yes"/>
      <point x="426" y="432"/>
      <point x="438" y="422"/>
      <point x="438" y="390" type="curve"/>
      <point x="261" y="-26" type="line"/>
    </contour>
  </outline>
</glyph>
